<svg width="1000" height="1000" viewBox="0 0 1000 1000" fill="none" xmlns="http://www.w3.org/2000/svg">
<rect width="1000" height="1000" fill="white"/>
<path d="M484.237 400.154C492.167 391.477 505.833 391.477 513.763 400.154L613.017 508.758C624.747 521.593 615.642 542.25 598.254 542.25H399.746C382.358 542.25 373.253 521.593 384.983 508.758L484.237 400.154Z" fill="#FFC701"/>
<path d="M374 540C374 512.386 396.386 490 424 490H574C601.614 490 624 512.386 624 540V690C624 717.614 601.614 740 574 740H424C396.386 740 374 717.614 374 690V540Z" fill="#FFC701"/>
<path d="M474 680C474 668.954 482.954 660 494 660H504C515.046 660 524 668.954 524 680V740C524 751.046 515.046 760 504 760H494C482.954 760 474 751.046 474 740V680Z" fill="white"/>
<rect x="424" y="560" width="50" height="50" rx="10" fill="white"/>
<rect x="524" y="560" width="50" height="50" rx="10" fill="white"/>
<rect x="374" y="660" width="73" height="80" fill="#FFC701"/>
<rect x="551" y="660" width="73" height="80" fill="black"/>
<rect x="551" y="660" width="73" height="80" fill="#FFC701"/>
<rect x="818" y="660" width="73" height="80" fill="#5352FF"/>
<rect x="641" y="660" width="73" height="80" fill="#5352FF"/>
<rect x="282" y="660" width="73" height="80" fill="#0FAA58"/>
<path d="M105 290C105 262.386 127.386 240 155 240H305C332.614 240 355 262.386 355 290V690C355 717.614 332.614 740 305 740H155C127.386 740 105 717.614 105 690V290Z" fill="#0FAA58"/>
<path d="M205 680C205 668.954 213.954 660 225 660H235C246.046 660 255 668.954 255 680V740C255 751.046 246.046 760 235 760H225C213.954 760 205 751.046 205 740V680Z" fill="white"/>
<rect x="155" y="561" width="50" height="50" rx="10" fill="white"/>
<rect x="255" y="561" width="50" height="50" rx="10" fill="white"/>
<rect x="155" y="443" width="50" height="50" rx="10" fill="white"/>
<rect x="255" y="443" width="50" height="50" rx="10" fill="white"/>
<rect x="155" y="325" width="50" height="50" rx="10" fill="white"/>
<rect x="255" y="325" width="50" height="50" rx="10" fill="white"/>
<path d="M641 540C641 512.386 663.386 490 691 490H841C868.614 490 891 512.386 891 540V690C891 717.614 868.614 740 841 740H691C663.386 740 641 717.614 641 690V540Z" fill="#5352FF"/>
<path d="M706 641C706 613.386 728.386 591 756 591H775C802.614 591 825 613.386 825 641V740C825 767.614 802.614 790 775 790H756C728.386 790 706 767.614 706 740V641Z" fill="white"/>
<rect x="632" y="482" width="50" height="50" rx="10" fill="white"/>
<rect x="850" y="482" width="50" height="50" rx="10" fill="white"/>
<rect x="105" y="660" width="73" height="80" fill="#0FAA58"/>
</svg>
